# xmcd
#
# Track frame offsets: 
#        150
#        10542
#        20622
#        32487
#        44811
#        56320
#        69055
#        75098
#        86117
#        96254
#        107778
#        120008
#        132414
#        141393
#        154234
#
# Disc length: 2302 seconds
#
# Revision: 0
# Processed by: cddbd v1.5.2PL0 Copyright (c) Steve Scherf et al.
# Submitted via: ExactAudioCopy v0.95b4
#
DISCID=b408fc0f
DTITLE=Various Artist - Country Legends - Blame It On The Times
DYEAR=2005
DGENRE=Country
TTITLE0=Willie Nelson/Blame It On The Times
TTITLE1=Leroy Van Dycke/Walk On By
TTITLE2=Dolly Parton/Letter To Heaven
TTITLE3=Charles Pride/Help Me Make It Through The Night
TTITLE4=Freddy Fender/I'm Leaving It All Up To You
TTITLE5=Rita Remington/Sentimental Journey
TTITLE6=Jim Reeves/Have I Told You Lately That I Love You
TTITLE7=Jerry Wallace/Primrose Lane
TTITLE8=Patsy Cline/Three Cigarettes In An Ashtray
TTITLE9=Conway Twitty (aka Harold Jenkins)/Turn The Other Cheek
TTITLE10=Hank Williams/My Sweet Love Ain't Around
TTITLE11=Lynn Anderson/Stand By Your Man
TTITLE12=Buck Owens/Rhythm And Booze
TTITLE13=Gene Autry/Lonely River
TTITLE14=Tina Turner/Lovin Him Was Easier
EXTD=
EXTT0=
EXTT1=
EXTT2=
EXTT3=
EXTT4=
EXTT5=
EXTT6=
EXTT7=
EXTT8=
EXTT9=
EXTT10=
EXTT11=
EXTT12=
EXTT13=
EXTT14=
PLAYORDER=
